<svg width="313" height="268" viewBox="0 0 313 268" fill="none" xmlns="http://www.w3.org/2000/svg">
<path fill-rule="evenodd" clip-rule="evenodd" d="M9.97176 183.522C13.0342 185.241 16.3955 186.101 20.0556 186.101C23.7156 186.101 27.0769 185.241 30.1394 183.522C33.2018 181.802 35.6108 179.428 37.3661 176.401C39.1588 173.336 40.0551 169.878 40.0551 166.028C40.0551 162.215 39.1588 158.795 37.3661 155.767C35.6108 152.702 33.2018 150.31 30.1394 148.59C27.1142 146.871 23.753 146.011 20.0556 146.011C16.3955 146.011 13.0342 146.871 9.97176 148.59C6.90927 150.31 4.48169 152.702 2.68901 155.767C0.896338 158.795 0 162.215 0 166.028C0 169.878 0.896338 173.336 2.68901 176.401C4.48169 179.428 6.90927 181.802 9.97176 183.522ZM26.2739 177.522C24.4812 178.569 22.4084 179.092 20.0556 179.092C17.7027 179.092 15.6112 178.569 13.7812 177.522C11.9885 176.438 10.588 174.905 9.57961 172.924C8.57123 170.943 8.06704 168.644 8.06704 166.028C8.06704 163.411 8.57123 161.131 9.57961 159.187C10.588 157.206 11.9885 155.692 13.7812 154.646C15.6112 153.599 17.7027 153.076 20.0556 153.076C22.4084 153.076 24.4812 153.599 26.2739 154.646C28.0666 155.692 29.4671 157.206 30.4755 159.187C31.4839 161.131 31.9881 163.411 31.9881 166.028C31.9881 168.644 31.4839 170.943 30.4755 172.924C29.4671 174.905 28.0666 176.438 26.2739 177.522Z" fill="#133D7D"/>
<path fill-rule="evenodd" clip-rule="evenodd" d="M57.8786 155.599C56.1232 156.533 54.7414 157.711 53.733 159.131V154.646H45.89V200.511H53.733V181.279C54.8161 182.699 56.2166 183.877 57.9346 184.811C59.6899 185.746 61.7067 186.213 63.9849 186.213C66.6365 186.213 69.0268 185.54 71.1556 184.194C73.3217 182.849 75.021 180.961 76.2535 178.531C77.5233 176.064 78.1582 173.242 78.1582 170.065C78.1582 166.887 77.5233 164.103 76.2535 161.71C75.021 159.281 73.3217 157.412 71.1556 156.103C69.0268 154.795 66.6365 154.141 63.9849 154.141C61.7067 154.141 59.6712 154.627 57.8786 155.599ZM68.9707 165.243C69.755 166.588 70.1472 168.196 70.1472 170.065C70.1472 171.971 69.755 173.616 68.9707 174.999C68.2238 176.382 67.2154 177.447 65.9456 178.195C64.7131 178.943 63.3686 179.316 61.9121 179.316C60.4929 179.316 59.1484 178.961 57.8786 178.251C56.6461 177.503 55.6377 176.438 54.8534 175.055C54.1065 173.672 53.733 172.046 53.733 170.177C53.733 168.308 54.1065 166.682 54.8534 165.299C55.6377 163.916 56.6461 162.869 57.8786 162.159C59.1484 161.411 60.4929 161.038 61.9121 161.038C63.3686 161.038 64.7131 161.393 65.9456 162.103C67.2154 162.813 68.2238 163.86 68.9707 165.243Z" fill="#133D7D"/>
<path fill-rule="evenodd" clip-rule="evenodd" d="M112.484 172.532C112.634 171.635 112.708 170.625 112.708 169.504C112.708 166.476 112.055 163.804 110.748 161.486C109.478 159.131 107.666 157.318 105.314 156.047C102.998 154.776 100.365 154.141 97.4146 154.141C94.3521 154.141 91.6444 154.795 89.2915 156.103C86.9386 157.412 85.1086 159.281 83.8014 161.71C82.4943 164.14 81.8407 166.962 81.8407 170.177C81.8407 173.354 82.4943 176.158 83.8014 178.587C85.146 181.017 86.9947 182.905 89.3475 184.25C91.7378 185.559 94.4268 186.213 97.4146 186.213C101.112 186.213 104.23 185.26 106.77 183.353C109.31 181.41 111.028 178.943 111.924 175.952H103.465C102.232 178.457 100.16 179.709 97.2465 179.709C95.2298 179.709 93.5304 179.073 92.1486 177.802C90.7667 176.532 89.9824 174.775 89.7957 172.532H112.484ZM102.4 162.439C103.82 163.635 104.548 165.243 104.585 167.261H89.8517C90.1505 165.168 90.9535 163.542 92.2606 162.383C93.6051 161.187 95.2484 160.589 97.1905 160.589C99.2446 160.589 100.981 161.206 102.4 162.439Z" fill="#133D7D"/>
<path d="M127.564 176.12V161.094H134.511V154.646H127.564V146.964H119.665V154.646H115.968V161.094H119.665V176.064C119.665 182.494 122.971 185.708 129.581 185.708H134.511V179.092H130.87C129.675 179.092 128.816 178.868 128.293 178.419C127.807 177.933 127.564 177.167 127.564 176.12Z" fill="#133D7D"/>
<path fill-rule="evenodd" clip-rule="evenodd" d="M168.779 172.532C168.928 171.635 169.003 170.625 169.003 169.504C169.003 166.476 168.349 163.804 167.042 161.486C165.772 159.131 163.961 157.318 161.608 156.047C159.293 154.776 156.66 154.141 153.709 154.141C150.647 154.141 147.939 154.795 145.586 156.103C143.233 157.412 141.403 159.281 140.096 161.71C138.789 164.14 138.135 166.962 138.135 170.177C138.135 173.354 138.789 176.158 140.096 178.587C141.441 181.017 143.289 182.905 145.642 184.25C148.032 185.559 150.721 186.213 153.709 186.213C157.407 186.213 160.525 185.26 163.065 183.353C165.604 181.41 167.322 178.943 168.219 175.952H159.76C158.527 178.457 156.454 179.709 153.541 179.709C151.524 179.709 149.825 179.073 148.443 177.802C147.061 176.532 146.277 174.775 146.09 172.532H168.779ZM158.695 162.439C160.114 163.635 160.843 165.243 160.88 167.261H146.146C146.445 165.168 147.248 163.542 148.555 162.383C149.9 161.187 151.543 160.589 153.485 160.589C155.539 160.589 157.276 161.206 158.695 162.439Z" fill="#133D7D"/>
<path d="M182.571 185.708V144.217H174.728V185.708H182.571Z" fill="#133D7D"/>
<path d="M198.162 185.708V144.217H190.319V185.708H198.162Z" fill="#133D7D"/>
<path fill-rule="evenodd" clip-rule="evenodd" d="M205.743 161.71C204.511 164.14 203.895 166.925 203.895 170.065C203.895 173.242 204.511 176.064 205.743 178.531C207.013 180.961 208.712 182.849 210.841 184.194C213.007 185.54 215.398 186.213 218.012 186.213C220.327 186.213 222.363 185.746 224.118 184.811C225.911 183.839 227.311 182.624 228.32 181.167V185.708H236.219V154.646H228.32V159.075C227.274 157.655 225.873 156.477 224.118 155.543C222.4 154.608 220.383 154.141 218.068 154.141C215.416 154.141 213.007 154.795 210.841 156.103C208.712 157.412 207.013 159.281 205.743 161.71ZM227.199 165.299C227.946 166.645 228.32 168.271 228.32 170.177C228.32 172.083 227.946 173.728 227.199 175.111C226.452 176.457 225.444 177.503 224.174 178.251C222.904 178.961 221.541 179.316 220.085 179.316C218.665 179.316 217.321 178.943 216.051 178.195C214.819 177.447 213.81 176.382 213.026 174.999C212.279 173.578 211.906 171.934 211.906 170.065C211.906 168.196 212.279 166.588 213.026 165.243C213.81 163.86 214.819 162.813 216.051 162.103C217.284 161.393 218.628 161.038 220.085 161.038C221.541 161.038 222.904 161.411 224.174 162.159C225.444 162.869 226.452 163.916 227.199 165.299Z" fill="#133D7D"/>
<path fill-rule="evenodd" clip-rule="evenodd" d="M243.711 161.71C242.478 164.14 241.862 166.925 241.862 170.065C241.862 173.242 242.478 176.064 243.711 178.531C244.98 180.961 246.68 182.849 248.809 184.194C250.975 185.54 253.365 186.213 255.979 186.213C258.295 186.213 260.33 185.746 262.086 184.811C263.878 183.839 265.279 182.624 266.287 181.167V185.708H274.186V154.646H266.287V159.075C265.241 157.655 263.841 156.477 262.086 155.543C260.368 154.608 258.351 154.141 256.035 154.141C253.384 154.141 250.975 154.795 248.809 156.103C246.68 157.412 244.98 159.281 243.711 161.71ZM265.167 165.299C265.914 166.645 266.287 168.271 266.287 170.177C266.287 172.083 265.914 173.728 265.167 175.111C264.42 176.457 263.411 177.503 262.142 178.251C260.872 178.961 259.509 179.316 258.052 179.316C256.633 179.316 255.288 178.943 254.019 178.195C252.786 177.447 251.778 176.382 250.993 174.999C250.246 173.578 249.873 171.934 249.873 170.065C249.873 168.196 250.246 166.588 250.993 165.243C251.778 163.86 252.786 162.813 254.019 162.103C255.251 161.393 256.595 161.038 258.052 161.038C259.509 161.038 260.872 161.411 262.142 162.159C263.411 162.869 264.42 163.916 265.167 165.299Z" fill="#133D7D"/>
<path d="M308.008 157.729C305.73 155.375 302.742 154.197 299.045 154.197C297.103 154.197 295.31 154.59 293.667 155.375C292.061 156.122 290.735 157.169 289.689 158.514V154.646H281.846V185.708H289.689V168.551C289.689 166.084 290.305 164.196 291.538 162.888C292.808 161.542 294.526 160.869 296.692 160.869C298.821 160.869 300.501 161.542 301.734 162.888C302.966 164.196 303.582 166.084 303.582 168.551V185.708H311.425V167.486C311.425 163.299 310.286 160.047 308.008 157.729Z" fill="#133D7D"/>
<path d="M11.4991 266.131C14.4371 267.377 17.7236 268 21.3588 268C25.1931 268 28.5046 267.302 31.2932 265.907C34.0818 264.461 36.1981 262.543 37.6422 260.15C39.0863 257.758 39.8084 255.166 39.8084 252.375C39.8084 249.136 39.0365 246.519 37.4929 244.525C35.9492 242.532 34.1067 241.037 31.9654 240.04C29.8242 239.043 27.0605 238.046 23.6743 237.049C21.1845 236.302 19.2424 235.654 17.8481 235.106C16.5036 234.508 15.3583 233.76 14.4122 232.863C13.5158 231.916 13.0677 230.745 13.0677 229.349C13.0677 227.356 13.6652 225.836 14.8603 224.789C16.1052 223.742 17.7485 223.219 19.7902 223.219C22.1306 223.219 23.998 223.817 25.3923 225.013C26.8364 226.159 27.6082 227.63 27.7078 229.424H39.2108C38.8623 224.739 36.9949 221.101 33.6087 218.509C30.2724 215.868 25.9152 214.547 20.5371 214.547C16.9518 214.547 13.7648 215.17 10.9762 216.416C8.18759 217.612 6.02144 219.356 4.47775 221.649C2.93406 223.942 2.16221 226.633 2.16221 229.723C2.16221 233.012 2.90916 235.654 4.40305 237.648C5.94675 239.591 7.76432 241.062 9.85578 242.058C11.997 243.005 14.7607 243.977 18.1469 244.974C20.6367 245.672 22.5788 246.32 23.9731 246.918C25.4172 247.466 26.6123 248.239 27.5584 249.235C28.5046 250.232 28.9776 251.503 28.9776 253.048C28.9776 254.942 28.2805 256.487 26.8862 257.683C25.4919 258.829 23.5747 259.403 21.1347 259.403C18.7445 259.403 16.8522 258.78 15.4579 257.534C14.1134 256.288 13.3664 254.593 13.217 252.45H2.01282C2.06262 255.64 2.93406 258.406 4.62714 260.748C6.32022 263.091 8.61086 264.885 11.4991 266.131Z" fill="#133D7D"/>
<path d="M59.1824 247.591V215.294H48.7251V247.516C48.7251 251.952 49.6463 255.714 51.4888 258.805C53.3313 261.845 55.8211 264.137 58.9583 265.682C62.1453 267.227 65.6808 268 69.5649 268C73.4989 268 77.0593 267.227 80.2463 265.682C83.4831 264.137 86.0476 261.845 87.9399 258.805C89.8819 255.714 90.853 251.952 90.853 247.516V215.294H80.321V247.591C80.321 251.129 79.3998 253.845 77.5573 255.739C75.7148 257.583 73.1005 258.506 69.7143 258.506C66.378 258.506 63.7885 257.583 61.9461 255.739C60.1036 253.845 59.1824 251.129 59.1824 247.591Z" fill="#133D7D"/>
<path fill-rule="evenodd" clip-rule="evenodd" d="M111.713 264.561C115.796 266.854 120.278 268 125.158 268C130.038 268 134.519 266.854 138.603 264.561C142.686 262.268 145.898 259.104 148.238 255.067C150.629 250.98 151.824 246.37 151.824 241.236C151.824 236.152 150.629 231.592 148.238 227.555C145.898 223.468 142.686 220.278 138.603 217.986C134.569 215.693 130.088 214.547 125.158 214.547C120.278 214.547 115.796 215.693 111.713 217.986C107.629 220.278 104.393 223.468 102.002 227.555C99.6121 231.592 98.417 236.152 98.417 241.236C98.417 246.37 99.6121 250.98 102.002 255.067C104.393 259.104 107.629 262.268 111.713 264.561ZM133.449 256.562C131.059 257.957 128.295 258.655 125.158 258.655C122.021 258.655 119.232 257.957 116.792 256.562C114.402 255.116 112.534 253.073 111.19 250.431C109.845 247.79 109.173 244.725 109.173 241.236C109.173 237.747 109.845 234.707 111.19 232.115C112.534 229.474 114.402 227.455 116.792 226.06C119.232 224.664 122.021 223.967 125.158 223.967C128.295 223.967 131.059 224.664 133.449 226.06C135.839 227.455 137.706 229.474 139.051 232.115C140.395 234.707 141.068 237.747 141.068 241.236C141.068 244.725 140.395 247.79 139.051 250.431C137.706 253.073 135.839 255.116 133.449 256.562Z" fill="#133D7D"/>
<path d="M216.446 267.477V215.294H204.645L188.062 254.095L171.48 215.294H159.604V267.477H170.061V233.536L184.104 267.477H192.021L205.989 233.536V267.477H216.446Z" fill="#133D7D"/>
<path d="M237.243 236.825V223.742H257.037V215.22H226.785V267.477H257.037V258.954H237.243V245.124H254.796V236.825H237.243Z" fill="#133D7D"/>
<path fill-rule="evenodd" clip-rule="evenodd" d="M274.308 267.477L277.744 257.534H298.509L301.945 267.477H313L294.252 215.22H282.076L263.328 267.477H274.308ZM288.127 227.331L295.671 249.161H280.582L288.127 227.331Z" fill="#133D7D"/>
<path fill-rule="evenodd" clip-rule="evenodd" d="M178.79 11.0449C180.216 8.34015 181.372 4.50049 179.746 1.30806C177.525 -3.04956 184.28 4.51803 187.935 8.84653L197.5 4.96934L198.378 14.8999L208.3 14.0212L206.952 20.5679C209.389 19.7705 216.335 22.3078 219.456 26.0714C213.094 28.0143 210.562 28.9358 209.045 30.2713C216.651 39.7566 221.201 51.8014 221.201 64.9098C221.201 95.4974 196.427 120.294 165.865 120.294C151.885 120.294 139.115 115.104 129.374 106.545C134.338 99.3224 137.244 90.5723 137.244 81.1429C137.244 64.7045 128.413 50.3302 115.241 42.5124C123.836 23.0823 143.269 9.52605 165.865 9.52605C170.316 9.52605 174.644 10.0519 178.79 11.0449ZM156.325 32.4435L150.6 22.8945C140.678 25.9502 133.745 38.1728 131.519 43.9022C136.099 37.7908 149.964 33.7166 156.325 32.4435Z" fill="#133D7D"/>
<path d="M228.834 65.8647C228.834 86.2839 218.982 104.4 203.776 115.712C209.256 118.636 215.512 120.294 222.155 120.294C243.759 120.294 261.272 102.765 261.272 81.143C261.272 73.2356 258.93 65.8757 254.902 59.7204C256.111 58.3838 257.374 58.0248 263.096 57.1334C261.385 54.3463 257.025 52.0095 255.337 52.307L256.847 48.0999L250.195 47.7433L250.551 41.0854L243.852 42.7478C241.841 39.5363 238.083 33.8871 239.142 36.9822C240.173 39.9963 237.841 43.3026 236.447 44.6878C232.593 43.1729 228.44 42.2527 224.101 42.04C227.15 49.376 228.834 57.4235 228.834 65.8647Z" fill="#133D7D"/>
<path fill-rule="evenodd" clip-rule="evenodd" d="M90.4945 41.9924C82.7261 41.9924 75.4865 44.2589 69.4 48.1673C69.2168 48.0528 69.0439 47.9463 68.8803 47.8454L68.8792 47.8447C66.3485 46.2848 66.0439 46.097 64.2439 39.1151C61.6404 41.0929 59.7439 45.6639 60.2051 47.3169L55.8739 46.2246L56.1712 52.8855L49.5161 53.183L51.8254 59.6927C48.8292 62.0105 43.5802 66.3067 46.554 64.9492C49.2597 63.714 52.5068 65.3777 54.1564 66.6231C52.3639 71.1129 51.378 76.0127 51.378 81.1429C51.378 102.765 68.8911 120.294 90.4945 120.294C112.098 120.294 129.611 102.765 129.611 81.1429C129.611 59.5207 112.098 41.9924 90.4945 41.9924ZM93.5035 49.6315L89.5405 55.7081C93.9439 56.5183 103.543 59.111 106.714 63C105.172 59.354 100.373 51.576 93.5035 49.6315Z" fill="#133D7D"/>
</svg>
