<svg width="217" height="121" viewBox="0 0 217 121" fill="none" xmlns="http://www.w3.org/2000/svg">
<path fill-rule="evenodd" clip-rule="evenodd" d="M132.859 11.1098C134.282 8.38914 135.436 4.52693 133.812 1.31574C131.597 -3.06747 138.338 4.54457 141.986 8.89849L151.532 4.99853L152.408 14.9874L162.311 14.1035L160.966 20.6887C163.398 19.8866 170.33 22.4388 173.446 26.2245C167.096 28.1788 164.568 29.1058 163.055 30.4491C170.646 39.9901 175.187 52.1056 175.187 65.291C175.187 96.0582 150.461 121 119.959 121C106.006 121 93.2614 115.78 83.5396 107.171C88.4935 99.9056 91.3933 91.1041 91.3933 81.6194C91.3933 65.0844 82.5804 50.6258 69.4342 42.7621C78.0115 23.2178 97.4067 9.58198 119.959 9.58198C124.401 9.58198 128.72 10.1109 132.859 11.1098ZM110.437 32.634L104.724 23.029C94.8213 26.1026 87.902 38.397 85.6802 44.16C90.2508 38.0128 104.089 33.9147 110.437 32.634Z" fill="#133D7D"/>
<path d="M182.804 66.2514C182.804 86.7906 172.972 105.013 157.796 116.391C163.265 119.333 169.509 121 176.139 121C197.7 121 215.179 103.369 215.179 81.6195C215.179 73.6657 212.841 66.2627 208.821 60.0713C210.029 58.7267 211.288 58.3656 217 57.4689C215.292 54.6655 210.941 52.315 209.256 52.6141L210.763 48.3824L204.124 48.0237L204.479 41.3267L197.794 42.9989C195.786 39.7685 192.036 34.0861 193.093 37.1994C194.121 40.2312 191.794 43.557 190.403 44.9503C186.556 43.4265 182.411 42.5008 178.081 42.2869C181.124 49.6659 182.804 57.7607 182.804 66.2514Z" fill="#133D7D"/>
<path fill-rule="evenodd" clip-rule="evenodd" d="M44.7358 42.239C36.9824 42.239 29.757 44.5189 23.6824 48.4503C23.4991 48.3348 23.3262 48.2274 23.1626 48.1257C20.6368 46.5566 20.3328 46.3677 18.5363 39.3449C15.9379 41.3343 14.0451 45.932 14.5054 47.5948L10.1827 46.4961L10.4793 53.1961L3.83727 53.4953L6.14209 60.0432C3.1517 62.3747 -2.08706 66.6962 0.880961 65.3306C3.58148 64.0882 6.82221 65.7618 8.46859 67.0144C6.67958 71.5306 5.6956 76.4591 5.6956 81.6195C5.6956 103.369 23.1745 121 44.7358 121C66.297 121 83.7759 103.369 83.7759 81.6195C83.7759 59.8702 66.297 42.239 44.7358 42.239ZM47.7389 49.923L43.7836 56.0352C48.1784 56.8502 57.7589 59.4581 60.9232 63.37C59.385 59.7026 54.5947 51.8789 47.7389 49.923Z" fill="#133D7D"/>
</svg>
